<svg width="130" height="29" viewBox="0 0 130 29" fill="none" xmlns="http://www.w3.org/2000/svg">
<path d="M28.6169 14.0233C28.6169 16.7922 27.7958 19.499 26.2575 21.8012C24.7191 24.1035 22.5326 25.8979 19.9744 26.9576C17.4163 28.0172 14.6013 28.2944 11.8856 27.7542C9.16988 27.2141 6.67531 25.8807 4.71738 23.9228C2.75944 21.9648 1.42607 19.4703 0.885879 16.7545C0.345686 14.0388 0.622933 11.2239 1.68256 8.66569C2.74219 6.10752 4.5366 3.92102 6.83889 2.38268C9.14118 0.84434 11.8479 0.0232544 14.6169 0.0232544V7.02325C13.2324 7.02325 11.879 7.4338 10.7279 8.20297C9.57674 8.97214 8.67953 10.0654 8.14972 11.3445C7.6199 12.6236 7.48128 14.031 7.75138 15.3889C8.02147 16.7468 8.68816 17.994 9.66713 18.973C10.6461 19.952 11.8934 20.6187 13.2512 20.8888C14.6091 21.1588 16.0166 21.0202 17.2957 20.4904C18.5747 19.9606 19.668 19.0634 20.4372 17.9122C21.2063 16.7611 21.6169 15.4077 21.6169 14.0233H28.6169Z" fill="#464851"/>
<path d="M27.3551 0.0234273L27.3339 0.0232544L15.8869 0.0234273V7.02341H21.6144V12.7502L28.6144 12.7502L28.6144 1.30378L28.6142 1.28266V0.0234273H27.3551Z" fill="#464851"/>
<path fill-rule="evenodd" clip-rule="evenodd" d="M41.1805 22.0234H37.6368L44.0889 3.69617H48.1875L54.6486 22.0234H51.1048L49.5864 17.5043H42.6962L41.1805 22.0234ZM46.2098 7.45469L48.6904 14.8375H43.5906L46.0666 7.45469H46.2098Z" fill="#464851"/>
<path fill-rule="evenodd" clip-rule="evenodd" d="M59.482 26.99C60.3173 27.3062 61.3165 27.4643 62.4799 27.4643C63.7148 27.4643 64.8185 27.2734 65.791 26.8915C66.7634 26.5097 67.53 25.934 68.0908 25.1644C68.6516 24.3948 68.932 23.4224 68.932 22.2471V8.2779H65.7373V10.5509H65.5583C65.3972 10.2168 65.1616 9.86185 64.8513 9.486C64.5411 9.10418 64.1235 8.77904 63.5985 8.51057C63.0795 8.23614 62.4173 8.09893 61.6119 8.09893C60.5559 8.09893 59.5984 8.37038 58.7393 8.91327C57.8802 9.45021 57.1971 10.2407 56.69 11.2847C56.1888 12.3228 55.9383 13.5965 55.9383 15.1059C55.9383 16.6033 56.1888 17.8502 56.69 18.8465C57.1971 19.8369 57.8772 20.5826 58.7303 21.0837C59.5894 21.5789 60.5469 21.8265 61.6029 21.8265C62.3904 21.8265 63.0437 21.7072 63.5627 21.4685C64.0877 21.2299 64.5083 20.9346 64.8245 20.5826C65.1467 20.2306 65.3913 19.8876 65.5583 19.5535H65.7194V22.1576C65.7194 23.1718 65.4181 23.8996 64.8156 24.3411C64.213 24.7886 63.4523 25.0123 62.5336 25.0123C61.8833 25.0123 61.3434 24.9228 60.9138 24.7438C60.4903 24.5708 60.1532 24.3501 59.9026 24.0816C59.6521 23.8191 59.4611 23.5536 59.3299 23.2852L56.4126 23.9921C56.6094 24.6305 56.9614 25.2121 57.4685 25.7371C57.9756 26.2621 58.6468 26.6798 59.482 26.99ZM64.2607 18.7839C63.7775 19.118 63.1928 19.285 62.5067 19.285C61.7968 19.285 61.1972 19.112 60.708 18.766C60.2248 18.414 59.8579 17.9248 59.6073 17.2984C59.3627 16.666 59.2404 15.9292 59.2404 15.088C59.2404 14.2587 59.3627 13.519 59.6073 12.8687C59.8519 12.2124 60.2158 11.6964 60.6991 11.3205C61.1823 10.9447 61.7849 10.7567 62.5067 10.7567C63.2048 10.7567 63.7924 10.9387 64.2697 11.3026C64.7529 11.6606 65.1168 12.1647 65.3614 12.815C65.612 13.4653 65.7373 14.2229 65.7373 15.088C65.7373 15.965 65.612 16.7167 65.3614 17.3431C65.1109 17.9695 64.744 18.4498 64.2607 18.7839Z" fill="#464851"/>
<path fill-rule="evenodd" clip-rule="evenodd" d="M78.3356 22.2918C76.9575 22.2918 75.7673 22.0055 74.765 21.4327C73.7687 20.854 73.0021 20.0367 72.4651 18.9807C71.9282 17.9188 71.6598 16.669 71.6598 15.2312C71.6598 13.8173 71.9282 12.5763 72.4651 11.5084C73.008 10.4346 73.7657 9.59935 74.7382 9.00276C75.7106 8.40021 76.8531 8.09893 78.1656 8.09893C79.0127 8.09893 79.8122 8.23614 80.5639 8.51057C81.3215 8.77904 81.9897 9.19665 82.5684 9.76342C83.1531 10.3302 83.6124 11.0521 83.9465 11.929C84.2806 12.8001 84.4477 13.8381 84.4477 15.0432V16.0366H74.8729C74.8824 16.8016 75.0284 17.4609 75.3109 18.0143C75.6032 18.581 76.0119 19.0165 76.5369 19.3208C77.0619 19.6191 77.6764 19.7682 78.3803 19.7682C78.8517 19.7682 79.2782 19.7026 79.66 19.5714C80.0419 19.4342 80.373 19.2343 80.6534 18.9718C80.9338 18.7093 81.1455 18.3842 81.2887 17.9964L84.3134 18.3364C84.1225 19.1359 83.7586 19.8339 83.2217 20.4305C82.6907 21.0211 82.0106 21.4805 81.1813 21.8086C80.3521 22.1307 79.4035 22.2918 78.3356 22.2918ZM75.293 12.3586C75.0481 12.8164 74.9101 13.3145 74.879 13.853H81.3424C81.3365 13.2326 81.2022 12.6807 80.9397 12.1975C80.6772 11.7083 80.3103 11.3235 79.839 11.0431C79.3737 10.7627 78.8308 10.6225 78.2103 10.6225C77.5481 10.6225 76.9664 10.7836 76.4653 11.1057C75.9641 11.4219 75.5734 11.8396 75.293 12.3586Z" fill="#464851"/>
<path d="M90.4295 13.9694C90.4295 13.3072 90.5518 12.7434 90.7964 12.278C91.047 11.8127 91.39 11.4577 91.8255 11.2131C92.267 10.9626 92.7711 10.8373 93.3379 10.8373C94.1731 10.8373 94.8264 11.0968 95.2977 11.6158C95.7749 12.1349 96.0136 12.8538 96.0136 13.7725V22.0234H99.2531V13.2714C99.259 12.1736 99.0651 11.24 98.6714 10.4704C98.2836 9.70077 97.7347 9.11313 97.0248 8.70745C96.3208 8.30177 95.4945 8.09893 94.546 8.09893C93.5198 8.09893 92.6578 8.32563 91.9597 8.77904C91.2677 9.23245 90.7636 9.84396 90.4474 10.6136H90.2863V8.2779H87.19V22.0234H90.4295V13.9694Z" fill="#464851"/>
<path d="M108.542 22.2918C107.17 22.2918 105.991 21.9905 105.007 21.388C104.028 20.7854 103.274 19.9532 102.743 18.8913C102.218 17.8234 101.955 16.5944 101.955 15.2043C101.955 13.8083 102.224 12.5763 102.761 11.5084C103.298 10.4346 104.055 9.59935 105.034 9.00276C106.018 8.40021 107.181 8.09893 108.524 8.09893C109.639 8.09893 110.627 8.30475 111.486 8.7164C112.351 9.12208 113.04 9.69779 113.553 10.4435C114.066 11.1833 114.358 12.0484 114.43 13.0387H111.334C111.208 12.3765 110.91 11.8246 110.439 11.3832C109.974 10.9357 109.35 10.712 108.569 10.712C107.906 10.712 107.325 10.891 106.824 11.2489C106.322 11.6009 105.932 12.108 105.651 12.7702C105.377 13.4324 105.24 14.2259 105.24 15.1506C105.24 16.0873 105.377 16.8927 105.651 17.5668C105.926 18.235 106.31 18.7511 106.806 19.115C107.307 19.4729 107.894 19.6519 108.569 19.6519C109.046 19.6519 109.472 19.5624 109.848 19.3834C110.23 19.1985 110.549 18.933 110.806 18.587C111.062 18.241 111.238 17.8204 111.334 17.3252H114.43C114.353 18.2976 114.066 19.1597 113.571 19.9114C113.076 20.6572 112.402 21.2418 111.549 21.6654C110.695 22.083 109.693 22.2918 108.542 22.2918Z" fill="#464851"/>
<path d="M119.102 27.178C118.66 27.178 118.252 27.1422 117.876 27.0706C117.506 27.005 117.211 26.9274 116.99 26.838L117.742 24.3144C118.213 24.4516 118.633 24.5172 119.003 24.5112C119.373 24.5053 119.698 24.3889 119.979 24.1622C120.265 23.9415 120.507 23.5716 120.704 23.0526L120.981 22.3098L115.997 8.27801H119.433L122.601 18.6587H122.744L125.921 8.27801H129.366L123.863 23.688C123.606 24.4158 123.266 25.0392 122.842 25.5583C122.419 26.0833 121.9 26.483 121.285 26.7574C120.677 27.0378 119.949 27.178 119.102 27.178Z" fill="#464851"/>
</svg>
