<svg width="89" height="26" viewBox="0 0 89 26" fill="none" xmlns="http://www.w3.org/2000/svg">
<path fill-rule="evenodd" clip-rule="evenodd" d="M75.7722 24.8914V5.9914H78.958V8.26441H79.1459C79.3129 7.93032 79.5486 7.57535 79.8529 7.1995C80.1571 6.81768 80.5688 6.49254 81.0878 6.22407C81.6068 5.94964 82.2691 5.81243 83.0744 5.81243C84.1364 5.81243 85.0939 6.08387 85.947 6.62677C86.8061 7.1637 87.4862 7.96015 87.9874 9.01612C88.4945 10.0661 88.748 11.3548 88.748 12.882C88.748 14.3914 88.5004 15.6741 88.0053 16.73C87.5101 17.786 86.836 18.5914 85.9828 19.1462C85.1297 19.7011 84.1632 19.9785 83.0834 19.9785C82.2959 19.9785 81.6426 19.8472 81.1236 19.5847C80.6046 19.3222 80.187 19.006 79.8708 18.6361C79.5605 18.2603 79.3189 17.9053 79.1459 17.5712H79.0117V24.8914H75.7722ZM78.949 12.8641C78.949 13.7531 79.0743 14.5316 79.3249 15.1998C79.5814 15.868 79.9483 16.39 80.4256 16.7658C80.9088 17.1357 81.4935 17.3207 82.1796 17.3207C82.8955 17.3207 83.495 17.1298 83.9783 16.7479C84.4615 16.3602 84.8254 15.8322 85.07 15.164C85.3206 14.4898 85.4459 13.7232 85.4459 12.8641C85.4459 12.011 85.3236 11.2533 85.079 10.5911C84.8344 9.9289 84.4705 9.40987 83.9872 9.03402C83.504 8.65816 82.9014 8.47024 82.1796 8.47024C81.4875 8.47024 80.8999 8.6522 80.4166 9.01612C79.9334 9.38004 79.5665 9.89012 79.3159 10.5464C79.0713 11.2026 78.949 11.9752 78.949 12.8641Z" fill="#464851"/>
<path fill-rule="evenodd" clip-rule="evenodd" d="M60.0225 5.9914V24.8914H63.262V17.5712H63.3962C63.5692 17.9053 63.8108 18.2603 64.1211 18.6361C64.4373 19.006 64.8549 19.3222 65.3739 19.5847C65.8929 19.8472 66.5462 19.9785 67.3337 19.9785C68.4135 19.9785 69.38 19.7011 70.2331 19.1462C71.0863 18.5914 71.7604 17.786 72.2556 16.73C72.7508 15.6741 72.9983 14.3914 72.9983 12.882C72.9983 11.3548 72.7448 10.0661 72.2377 9.01612C71.7365 7.96015 71.0564 7.1637 70.1973 6.62677C69.3442 6.08387 68.3867 5.81243 67.3248 5.81243C66.5194 5.81243 65.8571 5.94964 65.3381 6.22407C64.8191 6.49254 64.4074 6.81768 64.1032 7.1995C63.7989 7.57535 63.5633 7.93032 63.3962 8.26441H63.2083V5.9914H60.0225ZM63.5752 15.1998C63.3246 14.5316 63.1993 13.7531 63.1993 12.8641C63.1993 11.9752 63.3216 11.2026 63.5662 10.5464C63.8168 9.89012 64.1837 9.38004 64.6669 9.01612C65.1502 8.6522 65.7378 8.47024 66.4299 8.47024C67.1517 8.47024 67.7543 8.65816 68.2375 9.03402C68.7208 9.40987 69.0847 9.9289 69.3293 10.5911C69.5739 11.2533 69.6962 12.011 69.6962 12.8641C69.6962 13.7232 69.5709 14.4898 69.3204 15.164C69.0758 15.8322 68.7118 16.3602 68.2286 16.7479C67.7454 17.1298 67.1458 17.3207 66.4299 17.3207C65.7438 17.3207 65.1591 17.1357 64.6759 16.7658C64.1986 16.39 63.8317 15.868 63.5752 15.1998Z" fill="#464851"/>
<path fill-rule="evenodd" clip-rule="evenodd" d="M44.2835 19.7369H40.7398L47.1919 1.40967H51.2905L57.7516 19.7369H54.2078L52.6894 15.2178H45.7992L44.2835 19.7369ZM51.7934 12.551L49.3128 5.16819H49.1696L46.6936 12.551H51.7934Z" fill="#464851"/>
<path d="M6.89238 21.5771L22.1619 21.5771C27.6348 21.5771 32.0715 17.1404 32.0715 11.6676C32.0715 6.71798 28.059 2.70555 23.1095 2.70555H22.6357C20.5039 2.70555 18.5372 3.41252 16.9572 4.60481C15.7788 3.43107 14.1536 2.70555 12.359 2.70555H12.1507C8.81439 2.70555 6.08307 5.29571 5.8579 8.57483C2.66421 8.88534 0.16803 11.5775 0.16803 14.8527C0.16803 18.5665 3.17862 21.5771 6.89238 21.5771Z" fill="#464851"/>
</svg>
