<svg width="153" height="29" viewBox="0 0 153 29" fill="none" xmlns="http://www.w3.org/2000/svg">
<path d="M9.22928 2.07807C9.22928 0.930384 10.1597 0 11.3074 0H26.447C27.5947 0 28.5251 0.930384 28.5251 2.07807V17.3997C28.5251 18.5474 27.5947 19.4778 26.447 19.4778H19.8367V10.6468C19.8367 9.49907 18.9063 8.56869 17.7586 8.56869H9.22928V2.07807Z" fill="#464851"/>
<path d="M9.22928 8.56869H2.619C1.47131 8.56869 0.540924 9.49907 0.540924 10.6468V25.9684C0.540924 27.1161 1.47131 28.0465 2.61899 28.0465H17.7586C18.9063 28.0465 19.8367 27.1161 19.8367 25.9684V19.4778H11.3073C10.1597 19.4778 9.22928 18.5474 9.22928 17.3997V8.56869Z" fill="#464851"/>
<path d="M54.4095 10.6234H51.0626C50.9672 10.0746 50.7912 9.58834 50.5346 9.16476C50.2781 8.73522 49.9589 8.37129 49.5771 8.073C49.1953 7.7747 48.7598 7.55098 48.2706 7.40183C47.7873 7.24672 47.2653 7.16917 46.7045 7.16917C45.7082 7.16917 44.8252 7.41973 44.0556 7.92087C43.286 8.41604 42.6835 9.14388 42.248 10.1044C41.8125 11.0589 41.5947 12.2253 41.5947 13.6034C41.5947 15.0054 41.8125 16.1866 42.248 17.1471C42.6895 18.1017 43.292 18.8236 44.0556 19.3128C44.8252 19.796 45.7052 20.0376 46.6956 20.0376C47.2444 20.0376 47.7575 19.966 48.2348 19.8229C48.718 19.6737 49.1505 19.456 49.5324 19.1696C49.9201 18.8832 50.2453 18.5312 50.5078 18.1136C50.7762 17.696 50.9612 17.2187 51.0626 16.6818L54.4095 16.6997C54.2842 17.5707 54.0128 18.3881 53.5951 19.1517C53.1835 19.9153 52.6436 20.5895 51.9754 21.1741C51.3072 21.7528 50.5257 22.2062 49.6308 22.5344C48.7359 22.8565 47.7426 23.0176 46.6508 23.0176C45.04 23.0176 43.6022 22.6447 42.3375 21.899C41.0727 21.1533 40.0764 20.0764 39.3485 18.6685C38.6207 17.2605 38.2568 15.5721 38.2568 13.6034C38.2568 11.6287 38.6237 9.94033 39.3575 8.53834C40.0913 7.13039 41.0906 6.05354 42.3554 5.3078C43.6201 4.56206 45.052 4.18919 46.6508 4.18919C47.671 4.18919 48.6196 4.33237 49.4966 4.61874C50.3735 4.9051 51.1551 5.3257 51.8412 5.88053C52.5272 6.42939 53.091 7.10354 53.5325 7.90297C53.9799 8.69644 54.2723 9.60326 54.4095 10.6234Z" fill="#464851"/>
<path fill-rule="evenodd" clip-rule="evenodd" d="M59.8113 22.1495C60.7957 22.7401 61.959 23.0354 63.3014 23.0354C64.6437 23.0354 65.8071 22.7401 66.7914 22.1495C67.7758 21.5589 68.5365 20.7326 69.0734 19.6707C69.6163 18.6087 69.8877 17.3678 69.8877 15.9479C69.8877 14.5281 69.6163 13.2842 69.0734 12.2163C68.5365 11.1484 67.7758 10.3191 66.7914 9.72848C65.8071 9.13786 64.6437 8.84254 63.3014 8.84254C61.959 8.84254 60.7957 9.13786 59.8113 9.72848C58.8269 10.3191 58.0633 11.1484 57.5204 12.2163C56.9835 13.2842 56.715 14.5281 56.715 15.9479C56.715 17.3678 56.9835 18.6087 57.5204 19.6707C58.0633 20.7326 58.8269 21.5589 59.8113 22.1495ZM65.1448 19.8407C64.6556 20.2404 64.0471 20.4403 63.3193 20.4403C62.5735 20.4403 61.9531 20.2404 61.4579 19.8407C60.9687 19.435 60.6018 18.8921 60.3572 18.212C60.1186 17.5319 59.9992 16.7742 59.9992 15.939C59.9992 15.0978 60.1186 14.3371 60.3572 13.657C60.6018 12.971 60.9687 12.4251 61.4579 12.0194C61.9531 11.6137 62.5735 11.4109 63.3193 11.4109C64.0471 11.4109 64.6556 11.6137 65.1448 12.0194C65.634 12.4251 65.998 12.971 66.2366 13.657C66.4812 14.3371 66.6035 15.0978 66.6035 15.939C66.6035 16.7742 66.4812 17.5319 66.2366 18.212C65.998 18.8921 65.634 19.435 65.1448 19.8407Z" fill="#464851"/>
<path d="M72.6371 22.767V9.02152H75.7334V11.3572H75.8945C76.1809 10.5697 76.6552 9.95519 77.3174 9.51371C77.9796 9.06627 78.7701 8.84254 79.6888 8.84254C80.6195 8.84254 81.404 9.06925 82.0424 9.52266C82.6867 9.9701 83.1401 10.5816 83.4026 11.3572H83.5458C83.85 10.5935 84.3631 9.98502 85.085 9.53161C85.8128 9.07223 86.6749 8.84254 87.6712 8.84254C88.936 8.84254 89.9681 9.24226 90.7675 10.0417C91.5669 10.8411 91.9667 12.0075 91.9667 13.5407V22.767H88.7182V14.0418C88.7182 13.1887 88.4915 12.5653 88.0381 12.1715C87.5847 11.7718 87.0299 11.5719 86.3736 11.5719C85.5921 11.5719 84.9806 11.8166 84.5391 12.3058C84.1036 12.789 83.8858 13.4184 83.8858 14.194V22.767H80.709V13.9076C80.709 13.1977 80.4942 12.6309 80.0647 12.2073C79.6411 11.7837 79.0863 11.5719 78.4002 11.5719C77.9349 11.5719 77.5113 11.6913 77.1295 11.9299C76.7476 12.1626 76.4434 12.4937 76.2167 12.9232C75.99 13.3468 75.8766 13.842 75.8766 14.4087V22.767H72.6371Z" fill="#464851"/>
<path fill-rule="evenodd" clip-rule="evenodd" d="M95.2553 9.02152V27.9215H98.4948V20.6014H98.6291C98.8021 20.9354 99.0437 21.2904 99.3539 21.6663C99.6701 22.0362 100.088 22.3523 100.607 22.6148C101.126 22.8773 101.779 23.0086 102.567 23.0086C103.646 23.0086 104.613 22.7312 105.466 22.1764C106.319 21.6215 106.993 20.8161 107.488 19.7602C107.984 18.7042 108.231 17.4215 108.231 15.9121C108.231 14.3849 107.978 13.0962 107.471 12.0462C106.969 10.9903 106.289 10.1938 105.43 9.65689C104.577 9.11399 103.62 8.84254 102.558 8.84254C101.752 8.84254 101.09 8.97976 100.571 9.25419C100.052 9.52266 99.6403 9.8478 99.336 10.2296C99.0318 10.6055 98.7961 10.9604 98.6291 11.2945H98.4411V9.02152H95.2553ZM98.808 18.2299C98.5575 17.5617 98.4322 16.7832 98.4322 15.8943C98.4322 15.0053 98.5545 14.2327 98.7991 13.5765C99.0497 12.9202 99.4166 12.4102 99.8998 12.0462C100.383 11.6823 100.971 11.5004 101.663 11.5004C102.385 11.5004 102.987 11.6883 103.47 12.0641C103.954 12.44 104.318 12.959 104.562 13.6212C104.807 14.2835 104.929 15.0411 104.929 15.8943C104.929 16.7533 104.804 17.52 104.553 18.1941C104.309 18.8623 103.945 19.3903 103.461 19.7781C102.978 20.1599 102.379 20.3508 101.663 20.3508C100.977 20.3508 100.392 20.1658 99.9088 19.796C99.4315 19.4201 99.0646 18.8981 98.808 18.2299Z" fill="#464851"/>
<path fill-rule="evenodd" clip-rule="evenodd" d="M114.959 23.0444C114.088 23.0444 113.303 22.8893 112.605 22.5791C111.913 22.2629 111.365 21.7975 110.959 21.183C110.559 20.5685 110.359 19.8109 110.359 18.91C110.359 18.1345 110.502 17.4931 110.789 16.986C111.075 16.4789 111.466 16.0732 111.961 15.769C112.456 15.4647 113.014 15.235 113.635 15.0799C114.261 14.9188 114.908 14.8025 115.576 14.7309C116.382 14.6474 117.035 14.5728 117.536 14.5072C118.037 14.4356 118.401 14.3282 118.628 14.185C118.861 14.0359 118.977 13.8062 118.977 13.496V13.4423C118.977 12.7681 118.777 12.2461 118.377 11.8762C117.978 11.5063 117.402 11.3214 116.65 11.3214C115.857 11.3214 115.227 11.4944 114.762 11.8404C114.303 12.1864 113.992 12.5951 113.831 13.0664L110.807 12.6369C111.045 11.8016 111.439 11.1036 111.988 10.5428C112.537 9.97607 113.208 9.55249 114.001 9.27209C114.795 8.98573 115.672 8.84254 116.632 8.84254C117.295 8.84254 117.954 8.9201 118.61 9.07522C119.266 9.23033 119.866 9.48686 120.409 9.84482C120.952 10.1968 121.387 10.6771 121.715 11.2856C122.049 11.8941 122.216 12.6548 122.216 13.5675V22.767H119.102V20.8788H118.995C118.798 21.2606 118.521 21.6185 118.163 21.9526C117.811 22.2808 117.366 22.5462 116.829 22.7491C116.298 22.946 115.675 23.0444 114.959 23.0444ZM115.8 20.664C116.45 20.664 117.014 20.5357 117.491 20.2792C117.969 20.0167 118.336 19.6707 118.592 19.2411C118.855 18.8116 118.986 18.3433 118.986 17.8362V16.2164C118.885 16.2999 118.712 16.3775 118.467 16.4491C118.228 16.5207 117.96 16.5833 117.662 16.637C117.363 16.6907 117.068 16.7384 116.776 16.7802C116.483 16.8219 116.23 16.8577 116.015 16.8876C115.532 16.9532 115.099 17.0606 114.717 17.2097C114.336 17.3589 114.034 17.5677 113.814 17.8362C113.593 18.0987 113.482 18.4387 113.482 18.8563C113.482 19.4529 113.7 19.9033 114.136 20.2076C114.571 20.5119 115.126 20.664 115.8 20.664Z" fill="#464851"/>
<path d="M128.715 22.767V14.713C128.715 14.0508 128.837 13.487 129.082 13.0217C129.333 12.5563 129.676 12.2014 130.111 11.9567C130.553 11.7062 131.057 11.5809 131.624 11.5809C132.459 11.5809 133.112 11.8404 133.583 12.3594C134.061 12.8785 134.299 13.5974 134.299 14.5161V22.767H137.539V14.015C137.545 12.9173 137.351 11.9836 136.957 11.214C136.569 10.4444 136.02 9.85675 135.31 9.45107C134.607 9.04539 133.78 8.84254 132.832 8.84254C131.806 8.84254 130.943 9.06925 130.245 9.52266C129.553 9.97607 129.049 10.5876 128.733 11.3572H128.572V9.02152H125.476V22.767H128.715Z" fill="#464851"/>
<path d="M141.127 27.8142C141.502 27.8858 141.911 27.9216 142.353 27.9216C143.2 27.9216 143.928 27.7814 144.536 27.501C145.151 27.2266 145.67 26.8269 146.093 26.3019C146.517 25.7829 146.857 25.1594 147.113 24.4316L152.617 9.02163H149.172L145.995 19.4023H145.852L142.684 9.02163H139.247L144.232 23.0534L143.954 23.7962C143.757 24.3152 143.516 24.6851 143.229 24.9059C142.949 25.1326 142.624 25.2489 142.254 25.2549C141.884 25.2608 141.464 25.1952 140.992 25.058L140.241 27.5816C140.461 27.6711 140.757 27.7486 141.127 27.8142Z" fill="#464851"/>
</svg>
