<svg width="162" height="28" viewBox="0 0 162 28" fill="none" xmlns="http://www.w3.org/2000/svg">
<path d="M0.0103455 18.7176C0.0103455 19.407 0.708564 19.8769 1.34717 19.6173L9.88046 16.1485C10.2465 15.9997 10.4859 15.644 10.4859 15.2488V11.3317C10.4859 10.9366 10.7253 10.5809 11.0913 10.4321L19.6555 6.95066C20.0216 6.80186 20.261 6.44614 20.261 6.05102V1.45849C20.261 0.922154 19.8262 0.487366 19.2898 0.487366H10.7566C10.2202 0.487366 9.78544 0.922153 9.78544 1.45849L9.78544 8.71406C9.78544 9.25039 9.35065 9.68518 8.81431 9.68518L0.98147 9.68518C0.445133 9.68518 0.0103455 10.12 0.0103455 10.6563V18.7176Z" fill="#464851"/>
<path d="M27.6711 7.13323C27.6711 6.44388 26.9729 5.974 26.3342 6.2336L17.801 9.70242C17.4349 9.85121 17.1955 10.2069 17.1955 10.602V14.5192C17.1955 14.9143 16.9562 15.27 16.5901 15.4188L8.02587 18.9002C7.65984 19.049 7.42046 19.4047 7.42046 19.7998V24.3924C7.42046 24.9287 7.85524 25.3635 8.39158 25.3635H16.9249C17.4612 25.3635 17.896 24.9287 17.896 24.3924V17.1368C17.896 16.6005 18.3308 16.1657 18.8671 16.1657H26.7C27.2363 16.1657 27.6711 15.7309 27.6711 15.1946V7.13323Z" fill="#464851"/>
<path d="M128.666 8.65916V22.4046H131.906V8.65916H128.666Z" fill="#464851"/>
<path d="M128.97 6.19822C129.34 6.53828 129.782 6.70831 130.295 6.70831C130.814 6.70831 131.255 6.53828 131.619 6.19822C131.989 5.8522 132.174 5.43757 132.174 4.95433C132.174 4.46513 131.989 4.05049 131.619 3.71044C131.255 3.36442 130.814 3.1914 130.295 3.1914C129.782 3.1914 129.34 3.36442 128.97 3.71044C128.6 4.05049 128.415 4.46513 128.415 4.95433C128.415 5.43757 128.6 5.8522 128.97 6.19822Z" fill="#464851"/>
<path d="M146.101 12.2924L143.148 12.6145C143.065 12.3162 142.918 12.0358 142.71 11.7733C142.507 11.5108 142.232 11.2991 141.886 11.138C141.54 10.9769 141.117 10.8964 140.616 10.8964C139.941 10.8964 139.375 11.0425 138.915 11.3348C138.462 11.6272 138.238 12.006 138.244 12.4714C138.238 12.8711 138.384 13.1962 138.683 13.4468C138.987 13.6973 139.488 13.9032 140.186 14.0643L142.531 14.5654C143.831 14.8458 144.798 15.2902 145.43 15.8988C146.068 16.5073 146.391 17.3037 146.397 18.2881C146.391 19.1532 146.137 19.9168 145.636 20.579C145.141 21.2353 144.452 21.7483 143.569 22.1182C142.686 22.4881 141.672 22.6731 140.526 22.6731C138.844 22.6731 137.489 22.3211 136.463 21.6171C135.437 20.9072 134.826 19.9198 134.629 18.655L137.788 18.3508C137.931 18.9712 138.235 19.4395 138.701 19.7557C139.166 20.0719 139.771 20.23 140.517 20.23C141.287 20.23 141.904 20.0719 142.37 19.7557C142.841 19.4395 143.077 19.0488 143.077 18.5834C143.077 18.1897 142.924 17.8645 142.62 17.608C142.322 17.3515 141.856 17.1546 141.224 17.0174L138.88 16.5252C137.561 16.2508 136.586 15.7884 135.953 15.1381C135.321 14.4819 135.008 13.6526 135.014 12.6503C135.008 11.8032 135.237 11.0694 135.703 10.4489C136.174 9.82249 136.827 9.33925 137.662 8.99919C138.504 8.65317 139.473 8.48016 140.571 8.48016C142.182 8.48016 143.449 8.8232 144.374 9.50928C145.305 10.1954 145.88 11.1231 146.101 12.2924Z" fill="#464851"/>
<path fill-rule="evenodd" clip-rule="evenodd" d="M155.151 22.6731C153.773 22.6731 152.583 22.3867 151.581 21.814C150.585 21.2353 149.818 20.4179 149.281 19.362C148.744 18.3 148.476 17.0502 148.476 15.6124C148.476 14.1985 148.744 12.9576 149.281 11.8897C149.824 10.8158 150.582 9.98059 151.554 9.38399C152.526 8.78144 153.669 8.48016 154.981 8.48016C155.829 8.48016 156.628 8.61738 157.38 8.89181C158.137 9.16027 158.806 9.57789 159.384 10.1446C159.969 10.7114 160.428 11.4333 160.762 12.3103C161.096 13.1813 161.264 14.2194 161.264 15.4245V16.4178H151.689C151.698 17.1829 151.844 17.8421 152.127 18.3955C152.419 18.9623 152.828 19.3978 153.353 19.702C153.878 20.0003 154.492 20.1495 155.196 20.1495C155.668 20.1495 156.094 20.0839 156.476 19.9526C156.858 19.8154 157.189 19.6155 157.469 19.353C157.75 19.0905 157.961 18.7654 158.105 18.3776L161.129 18.7177C160.938 19.5171 160.574 20.2151 160.038 20.8117C159.507 21.4023 158.826 21.8617 157.997 22.1898C157.168 22.512 156.219 22.6731 155.151 22.6731ZM152.109 12.7398C151.864 13.1976 151.726 13.6958 151.695 14.2343H158.158C158.152 13.6138 158.018 13.062 157.756 12.5787C157.493 12.0895 157.126 11.7047 156.655 11.4243C156.19 11.1439 155.647 11.0037 155.026 11.0037C154.364 11.0037 153.782 11.1648 153.281 11.487C152.78 11.8032 152.389 12.2208 152.109 12.7398Z" fill="#464851"/>
<path d="M118.675 22.4047V8.65921H121.816V10.9501H121.96C122.21 10.1566 122.64 9.54514 123.248 9.1156C123.863 8.68009 124.564 8.46233 125.351 8.46233C125.53 8.46233 125.73 8.47128 125.951 8.48918C126.177 8.50111 126.365 8.52199 126.515 8.55182V11.5318C126.377 11.4841 126.16 11.4423 125.861 11.4065C125.569 11.3647 125.286 11.3439 125.011 11.3439C124.421 11.3439 123.89 11.4721 123.418 11.7287C122.953 11.9792 122.586 12.3282 122.318 12.7757C122.049 13.2231 121.915 13.7392 121.915 14.3238V22.4047H118.675Z" fill="#464851"/>
<path fill-rule="evenodd" clip-rule="evenodd" d="M102.923 8.65914V27.5591H106.162V20.239H106.296C106.469 20.5731 106.711 20.928 107.021 21.3039C107.337 21.6738 107.755 21.99 108.274 22.2525C108.793 22.515 109.446 22.6462 110.234 22.6462C111.314 22.6462 112.28 22.3688 113.133 21.814C113.986 21.2591 114.66 20.4537 115.156 19.3978C115.651 18.3418 115.898 17.0591 115.898 15.5498C115.898 14.0225 115.645 12.7339 115.138 11.6839C114.637 10.6279 113.956 9.83144 113.097 9.29451C112.244 8.75161 111.287 8.48016 110.225 8.48016C109.419 8.48016 108.757 8.61738 108.238 8.89181C107.719 9.16027 107.307 9.48542 107.003 9.86723C106.699 10.2431 106.463 10.5981 106.296 10.9321H106.108V8.65914H102.923ZM106.475 17.8675C106.225 17.1993 106.099 16.4208 106.099 15.5319C106.099 14.6429 106.222 13.8704 106.466 13.2141C106.717 12.5579 107.084 12.0478 107.567 11.6839C108.05 11.3199 108.638 11.138 109.33 11.138C110.052 11.138 110.654 11.3259 111.138 11.7018C111.621 12.0776 111.985 12.5966 112.229 13.2589C112.474 13.9211 112.596 14.6787 112.596 15.5319C112.596 16.391 112.471 17.1576 112.22 17.8317C111.976 18.4999 111.612 19.0279 111.129 19.4157C110.645 19.7975 110.046 19.9884 109.33 19.9884C108.644 19.9884 108.059 19.8035 107.576 19.4336C107.099 19.0577 106.732 18.5357 106.475 17.8675Z" fill="#464851"/>
<path d="M92.9316 22.4047V8.65921H96.0727V10.9501H96.2159C96.4664 10.1566 96.896 9.54514 97.5045 9.1156C98.119 8.68009 98.82 8.46233 99.6075 8.46233C99.7864 8.46233 99.9863 8.47128 100.207 8.48918C100.434 8.50111 100.622 8.52199 100.771 8.55182V11.5318C100.634 11.4841 100.416 11.4423 100.118 11.4065C99.8252 11.3647 99.5418 11.3439 99.2674 11.3439C98.6768 11.3439 98.1458 11.4721 97.6745 11.7287C97.2092 11.9792 96.8423 12.3282 96.5738 12.7757C96.3053 13.2231 96.1711 13.7392 96.1711 14.3238V22.4047H92.9316Z" fill="#464851"/>
<path fill-rule="evenodd" clip-rule="evenodd" d="M80.5098 21.814C81.512 22.3867 82.7022 22.6731 84.0804 22.6731C85.1483 22.6731 86.0968 22.512 86.9261 22.1898C87.7554 21.8617 88.4355 21.4023 88.9664 20.8117C89.5034 20.2151 89.8673 19.5171 90.0582 18.7177L87.0335 18.3776C86.8903 18.7654 86.6785 19.0905 86.3981 19.353C86.1177 19.6155 85.7866 19.8154 85.4048 19.9526C85.023 20.0839 84.5964 20.1495 84.1251 20.1495C83.4211 20.1495 82.8066 20.0003 82.2816 19.702C81.7566 19.3978 81.348 18.9623 81.0556 18.3955C80.7732 17.8421 80.6272 17.1829 80.6177 16.4178H90.1924V15.4245C90.1924 14.2194 90.0254 13.1813 89.6913 12.3103C89.3572 11.4333 88.8978 10.7114 88.3132 10.1446C87.7345 9.57789 87.0663 9.16027 86.3086 8.89181C85.5569 8.61738 84.7575 8.48016 83.9103 8.48016C82.5978 8.48016 81.4554 8.78144 80.4829 9.38399C79.5105 9.98059 78.7528 10.8158 78.2099 11.8897C77.673 12.9576 77.4045 14.1985 77.4045 15.6124C77.4045 17.0502 77.673 18.3 78.2099 19.362C78.7468 20.4179 79.5135 21.2353 80.5098 21.814ZM87.0872 14.2343H80.6238C80.6549 13.6958 80.7929 13.1976 81.0378 12.7398C81.3181 12.2208 81.7089 11.8032 82.2101 11.487C82.7112 11.1648 83.2929 11.0037 83.9551 11.0037C84.5755 11.0037 85.1184 11.1439 85.5838 11.4243C86.0551 11.7047 86.422 12.0895 86.6845 12.5787C86.947 13.062 87.0812 13.6138 87.0872 14.2343Z" fill="#464851"/>
<path d="M75.4314 8.65922V11.1649H72.7199V18.2703C72.7199 18.7058 72.7856 19.0399 72.9168 19.2726C73.054 19.4993 73.233 19.6544 73.4538 19.7379C73.6745 19.8214 73.9191 19.8632 74.1876 19.8632C74.3904 19.8632 74.5753 19.8483 74.7424 19.8185C74.9154 19.7886 75.0466 19.7618 75.1361 19.7379L75.682 22.2704C75.509 22.3301 75.2614 22.3957 74.9393 22.4673C74.6231 22.5389 74.2353 22.5807 73.7759 22.5926C72.9646 22.6165 72.2337 22.4942 71.5834 22.2257C70.9332 21.9513 70.4171 21.5277 70.0353 20.955C69.6594 20.3822 69.4745 19.6663 69.4805 18.8072V11.1649H67.5296V8.65922H69.4805V5.36604H72.7199V8.65922H75.4314Z" fill="#464851"/>
<path d="M56.4521 22.4046V14.3506C56.4521 13.6884 56.5744 13.1246 56.819 12.6593C57.0695 12.1939 57.4126 11.839 57.8481 11.5944C58.2896 11.3438 58.7937 11.2185 59.3604 11.2185C60.1957 11.2185 60.8489 11.478 61.3202 11.9971C61.7975 12.5161 62.0361 13.235 62.0361 14.1537V22.4046H65.2756V13.6526C65.2816 12.5549 65.0877 11.6212 64.694 10.8516C64.3062 10.082 63.7573 9.49436 63.0474 9.08868C62.3434 8.683 61.5171 8.48016 60.5685 8.48016C59.5424 8.48016 58.6803 8.70686 57.9823 9.16027C57.2903 9.61368 56.7861 10.2252 56.4699 10.9948H56.3089V8.65914H53.2126V22.4046H56.4521Z" fill="#464851"/>
<path d="M38.0491 22.4047V4.0774H49.969V6.8605H41.3691V11.8361H49.3515V14.6192H41.3691V19.6216H50.0406V22.4047H38.0491Z" fill="#464851"/>
</svg>
