<svg width="138" height="29" viewBox="0 0 138 29" fill="none" xmlns="http://www.w3.org/2000/svg">
<path d="M0.26355 14.0233C0.26355 8.47648 3.48928 3.68312 8.16716 1.41676V14.0857C8.2007 17.4246 10.918 20.1209 14.2647 20.121L26.8694 20.1211C24.6027 24.7982 19.8098 28.0233 14.2636 28.0233C6.53157 28.0233 0.26355 21.7552 0.26355 14.0233Z" fill="#464851"/>
<path d="M28.2636 14.0233C28.2636 14.818 28.1973 15.5972 28.0701 16.3558H19.9008C20.1985 15.6372 20.3628 14.8494 20.3628 14.0232C20.3628 10.6554 17.6327 7.92535 14.265 7.92535C13.4388 7.92535 12.651 8.08966 11.9325 8.38737V0.216449C12.6906 0.089388 13.4693 0.0232544 14.2636 0.0232544C21.9955 0.0232544 28.2636 6.29127 28.2636 14.0233Z" fill="#464851"/>
<path d="M84.0809 22.8177V9.07223H87.3204V22.8177H84.0809Z" fill="#464851"/>
<path d="M85.7096 7.12138C85.1965 7.12138 84.755 6.95135 84.3851 6.61129C84.0153 6.26527 83.8303 5.85064 83.8303 5.3674C83.8303 4.8782 84.0153 4.46356 84.3851 4.12351C84.755 3.77749 85.1965 3.60447 85.7096 3.60447C86.2286 3.60447 86.6701 3.77749 87.034 4.12351C87.4039 4.46356 87.5888 4.8782 87.5888 5.3674C87.5888 5.85064 87.4039 6.26527 87.034 6.61129C86.6701 6.95135 86.2286 7.12138 85.7096 7.12138Z" fill="#464851"/>
<path d="M97.516 11.578V9.07229H94.8045V5.77911H91.565V9.07229H89.6142V11.578H91.565V19.2203C91.5591 20.0794 91.744 20.7953 92.1199 21.368C92.5017 21.9408 93.0177 22.3643 93.668 22.6388C94.3183 22.9072 95.0491 23.0295 95.8605 23.0057C96.3199 22.9937 96.7077 22.952 97.0238 22.8804C97.346 22.8088 97.5936 22.7432 97.7666 22.6835L97.2207 20.151C97.1312 20.1748 97 20.2017 96.827 20.2315C96.6599 20.2614 96.475 20.2763 96.2721 20.2763C96.0037 20.2763 95.7591 20.2345 95.5383 20.151C95.3176 20.0675 95.1386 19.9123 95.0014 19.6856C94.8702 19.453 94.8045 19.1189 94.8045 18.6834V11.578H97.516Z" fill="#464851"/>
<path d="M122.42 11.578V9.07229H119.708V5.77911H116.469V9.07229H114.518V11.578H116.469V19.2203C116.463 20.0794 116.648 20.7953 117.023 21.368C117.405 21.9408 117.921 22.3643 118.572 22.6388C119.222 22.9072 119.953 23.0295 120.764 23.0057C121.223 22.9937 121.611 22.952 121.927 22.8804C122.25 22.8088 122.497 22.7432 122.67 22.6835L122.124 20.151C122.035 20.1748 121.904 20.2017 121.731 20.2315C121.563 20.2614 121.379 20.2763 121.176 20.2763C120.907 20.2763 120.663 20.2345 120.442 20.151C120.221 20.0675 120.042 19.9123 119.905 19.6856C119.774 19.453 119.708 19.1189 119.708 18.6834V11.578H122.42Z" fill="#464851"/>
<path fill-rule="evenodd" clip-rule="evenodd" d="M127.498 22.227C128.5 22.7998 129.69 23.0861 131.069 23.0861C132.136 23.0861 133.085 22.925 133.914 22.6029C134.744 22.2748 135.424 21.8154 135.955 21.2248C136.492 20.6282 136.855 19.9302 137.046 19.1307L134.022 18.7907C133.878 19.1785 133.667 19.5036 133.386 19.7661C133.106 20.0286 132.775 20.2285 132.393 20.3657C132.011 20.4969 131.585 20.5625 131.113 20.5625C130.409 20.5625 129.795 20.4134 129.27 20.1151C128.745 19.8108 128.336 19.3753 128.044 18.8086C127.761 18.2552 127.615 17.5959 127.606 16.8309H137.181V15.8376C137.181 14.6324 137.014 13.5944 136.679 12.7233C136.345 11.8464 135.886 11.1245 135.301 10.5577C134.723 9.99096 134.054 9.57334 133.297 9.30488C132.545 9.03045 131.746 8.89323 130.898 8.89323C129.586 8.89323 128.444 9.19451 127.471 9.79706C126.499 10.3937 125.741 11.2289 125.198 12.3027C124.661 13.3706 124.393 14.6116 124.393 16.0255C124.393 17.4633 124.661 18.7131 125.198 19.775C125.735 20.831 126.502 21.6483 127.498 22.227ZM127.612 14.6474C127.643 14.1088 127.781 13.6107 128.026 13.1529C128.306 12.6339 128.697 12.2162 129.198 11.9C129.699 11.5779 130.281 11.4168 130.943 11.4168C131.564 11.4168 132.107 11.557 132.572 11.8374C133.043 12.1178 133.41 12.5026 133.673 12.9918C133.935 13.475 134.069 14.0269 134.075 14.6474H127.612Z" fill="#464851"/>
<path d="M108.987 17.0368V9.07231H112.226V22.8178H109.085V20.3747H108.942C108.632 21.1443 108.122 21.7737 107.412 22.2629C106.708 22.7521 105.84 22.9967 104.808 22.9967C103.907 22.9967 103.11 22.7969 102.418 22.3972C101.732 21.9915 101.195 21.4038 100.807 20.6342C100.42 19.8587 100.226 18.922 100.226 17.8243V9.07231H103.465V17.3232C103.465 18.1942 103.704 18.8862 104.181 19.3993C104.658 19.9124 105.285 20.1689 106.06 20.1689C106.538 20.1689 107 20.0526 107.448 19.8199C107.895 19.5872 108.262 19.2412 108.548 18.7818C108.841 18.3165 108.987 17.7348 108.987 17.0368Z" fill="#464851"/>
<path d="M81.3714 11.578V9.07229H78.6598V5.77911H75.4204V9.07229H73.4695V11.578H75.4204V19.2203C75.4144 20.0794 75.5993 20.7953 75.9752 21.368C76.357 21.9408 76.8731 22.3643 77.5233 22.6388C78.1736 22.9072 78.9044 23.0295 79.7158 23.0057C80.1752 22.9937 80.563 22.952 80.8792 22.8804C81.2013 22.8088 81.4489 22.7432 81.6219 22.6835L81.076 20.151C80.9865 20.1748 80.8553 20.2017 80.6823 20.2315C80.5152 20.2614 80.3303 20.2763 80.1275 20.2763C79.859 20.2763 79.6144 20.2345 79.3937 20.151C79.1729 20.0675 78.9939 19.9123 78.8567 19.6856C78.7255 19.453 78.6598 19.1189 78.6598 18.6834V11.578H81.3714Z" fill="#464851"/>
<path d="M71.5434 12.7054L68.5903 13.0276C68.5068 12.7293 68.3606 12.4489 68.1518 12.1864C67.949 11.9239 67.6745 11.7121 67.3285 11.551C66.9825 11.39 66.5589 11.3094 66.0578 11.3094C65.3836 11.3094 64.8169 11.4556 64.3575 11.7479C63.9041 12.0402 63.6804 12.4191 63.6863 12.8844C63.6804 13.2841 63.8265 13.6093 64.1248 13.8599C64.4291 14.1104 64.9302 14.3162 65.6282 14.4773L67.9728 14.9785C69.2734 15.2589 70.2399 15.7033 70.8723 16.3118C71.5106 16.9204 71.8328 17.7168 71.8387 18.7012C71.8328 19.5662 71.5792 20.3299 71.0781 20.9921C70.5829 21.6483 69.8939 22.1614 69.0109 22.5313C68.1279 22.9012 67.1137 23.0861 65.9683 23.0861C64.2859 23.0861 62.9316 22.7341 61.9055 22.0302C60.8794 21.3202 60.2679 20.3329 60.071 19.0681L63.2299 18.7638C63.3731 19.3843 63.6774 19.8526 64.1427 20.1688C64.6081 20.485 65.2136 20.6431 65.9593 20.6431C66.7289 20.6431 67.3464 20.485 67.8118 20.1688C68.2831 19.8526 68.5187 19.4618 68.5187 18.9965C68.5187 18.6027 68.3666 18.2776 68.0623 18.0211C67.764 17.7645 67.2987 17.5677 66.6663 17.4304L64.3217 16.9383C63.0032 16.6638 62.0278 16.2015 61.3954 15.5512C60.763 14.8949 60.4498 14.0657 60.4558 13.0634C60.4498 12.2162 60.6795 11.4824 61.1449 10.862C61.6162 10.2356 62.2694 9.75232 63.1047 9.41226C63.9458 9.06624 64.9153 8.89323 66.013 8.89323C67.6238 8.89323 68.8916 9.23627 69.8163 9.92235C70.747 10.6084 71.3227 11.5361 71.5434 12.7054Z" fill="#464851"/>
<path d="M48.5608 22.8177V14.7637C48.5608 14.1015 48.6831 13.5377 48.9277 13.0724C49.1783 12.607 49.5213 12.252 49.9568 12.0074C50.3983 11.7569 50.9024 11.6316 51.4692 11.6316C52.3044 11.6316 52.9577 11.8911 53.429 12.4101C53.9063 12.9292 54.1449 13.6481 54.1449 14.5668V22.8177H57.3844V14.0657C57.3904 12.9679 57.1965 12.0343 56.8027 11.2647C56.4149 10.4951 55.8661 9.90743 55.1561 9.50175C54.4522 9.09607 53.6259 8.89323 52.6773 8.89323C51.6512 8.89323 50.7891 9.11993 50.0911 9.57334C49.399 10.0268 48.8949 10.6383 48.5787 11.4079H48.4176V9.07221H45.3213V22.8177H48.5608Z" fill="#464851"/>
<path d="M41.87 4.49047V22.8177H38.55V4.49047H41.87Z" fill="#464851"/>
</svg>
