<svg width="143" height="33" viewBox="0 0 143 33" fill="none" xmlns="http://www.w3.org/2000/svg">
<path d="M0 24.2562V32.9231H6.09313V22.0492L0 24.2562Z" fill="#1C4AA1"/>
<path d="M0 8.41244L6.09313 6.14952V5.11015L0 7.47504V8.41244Z" fill="#1C4AA1"/>
<path d="M0 6.31891L6.09313 4.05598V3.01662L0 5.38151V6.31891Z" fill="#1C4AA1"/>
<path d="M6.09313 0.92308L0 3.28962V4.22538L6.09313 1.96245V0.92308Z" fill="#1C4AA1"/>
<path d="M0 23.0639L6.09313 20.801V19.7616L0 22.1265V23.0639Z" fill="#1C4AA1"/>
<path d="M0 20.9704L6.09313 18.7074V17.6681L0 20.0346V20.9704Z" fill="#1C4AA1"/>
<path d="M0 18.8768L6.09313 16.6139V15.5745L0 17.9411V18.8768Z" fill="#1C4AA1"/>
<path d="M0 16.7833L6.09313 14.522V13.4827L0 15.8475V16.7833Z" fill="#1C4AA1"/>
<path d="M0 10.5043L6.09313 8.24142V7.20206L0 9.56859V10.5043Z" fill="#1C4AA1"/>
<path d="M0 12.5979L6.09313 10.3349V9.29558L0 11.6621V12.5979Z" fill="#1C4AA1"/>
<path d="M0 14.6914L6.09313 12.4285V11.3891L0 13.754V14.6914Z" fill="#1C4AA1"/>
<path d="M6.09277 0.92308V1.96245V3.08075V4.12012V5.13318V6.17254V7.19875V8.23812V9.30216V10.3432V11.4664V12.5058V13.4744V14.5138V15.7341V16.7734V17.7092V18.7485V19.7616V20.801V21.814V32.9214H12.1102V6.23175L6.09277 0.92308Z" fill="#0D265C"/>
<path d="M36.9203 24.2562V32.9231H30.8271V22.0492L36.9203 24.2562Z" fill="#1C4AA1"/>
<path d="M36.9203 8.41244L30.8271 6.14952V5.11015L36.9203 7.47504V8.41244Z" fill="#1C4AA1"/>
<path d="M36.9203 6.31891L30.8271 4.05598V3.01662L36.9203 5.38151V6.31891Z" fill="#1C4AA1"/>
<path d="M30.8271 0.92308L36.9203 3.28962V4.22538L30.8271 1.96245V0.92308Z" fill="#1C4AA1"/>
<path d="M36.9203 23.0639L30.8271 20.801V19.7616L36.9203 22.1265V23.0639Z" fill="#1C4AA1"/>
<path d="M36.9203 20.9704L30.8271 18.7074V17.6681L36.9203 20.0346V20.9704Z" fill="#1C4AA1"/>
<path d="M36.9203 18.8768L30.8271 16.6139V15.5745L36.9203 17.9411V18.8768Z" fill="#1C4AA1"/>
<path d="M36.9203 16.7833L30.8271 14.522V13.4827L36.9203 15.8475V16.7833Z" fill="#1C4AA1"/>
<path d="M36.9203 10.5043L30.8271 8.24142V7.20206L36.9203 9.56859V10.5043Z" fill="#1C4AA1"/>
<path d="M36.9203 12.5979L30.8271 10.3349V9.29558L36.9203 11.6621V12.5979Z" fill="#1C4AA1"/>
<path d="M36.9203 14.6914L30.8271 12.4285V11.3891L36.9203 13.754V14.6914Z" fill="#1C4AA1"/>
<path d="M30.827 0.92308V1.96245V3.08075V4.12012V5.13318V6.17254V7.19875V8.23812V9.30216V10.3432V11.4664V12.5058V13.4744V14.5138V15.7341V16.7734V17.7092V18.7485V19.7616V20.801V21.814V32.9214H24.8096V6.23175L30.827 0.92308Z" fill="#0D265C"/>
<path d="M18.4598 16.4281L14.4043 14.7588V32.9214H18.4598H22.5137V14.7588L18.4598 16.4281Z" fill="#1C4AA1"/>
<path d="M57.4709 25.7989C57.8179 25.7989 58.2357 25.7989 58.6468 26.0193C59.104 26.2643 59.4674 26.7774 59.4674 27.3925C59.4674 27.9533 59.1747 28.473 58.6945 28.7657C58.285 29.0173 57.8656 29.0173 57.4249 29.0173H56.6273V31.1799H55.2705V25.7989H57.4726H57.4709ZM56.6273 26.7922V28.0306H57.0697C57.5038 28.0306 58.0794 28.0306 58.0794 27.3991C58.0794 26.7676 57.4874 26.7922 57.1009 26.7922H56.6273Z" fill="#0D265C"/>
<path d="M62.4738 25.7989C62.9639 25.7989 63.4523 25.7989 63.8865 26.067C64.171 26.2561 64.5887 26.6985 64.5887 27.3366C64.5887 28.2361 63.8947 28.5519 63.6661 28.6621C64.0526 28.8512 64.3206 29.3956 64.439 29.6719C64.5887 29.9794 64.8173 30.4843 64.9604 30.7918L65.1413 31.1783H63.6661C63.5477 30.9415 63.0823 29.8758 62.9721 29.6636C62.6086 28.9844 62.3406 28.9844 61.9623 28.9844H61.765V31.1783H60.4082V25.7973H62.4754L62.4738 25.7989ZM61.7633 26.7758V28.0059H62.3241C62.6711 27.9895 62.7583 27.9895 62.8997 27.9105C63.0971 27.8086 63.1925 27.6112 63.1925 27.3892C63.1925 26.7741 62.5922 26.7741 62.4425 26.7741H61.7633V26.7758Z" fill="#0D265C"/>
<path d="M68.2787 31.2506C66.4171 31.2506 65.21 29.9021 65.21 28.4976C65.21 27.2428 66.251 25.7282 68.3034 25.7282C70.2045 25.7282 71.3886 27.0932 71.3886 28.4976C71.3886 29.7442 70.3706 31.2506 68.2804 31.2506H68.2787ZM68.2952 26.8711C67.3331 26.8711 66.6062 27.455 66.6062 28.5207C66.6062 29.8067 67.6637 30.1619 68.3034 30.1619C69.1635 30.1619 69.9989 29.5946 69.9989 28.5289C69.9989 27.5273 69.3444 26.8728 68.2952 26.8728V26.8711Z" fill="#0D265C"/>
<path d="M74.4661 25.7989C74.8131 25.7989 75.2308 25.7989 75.6419 26.0193C76.0991 26.2643 76.4626 26.7774 76.4626 27.3925C76.4626 27.9533 76.1698 28.473 75.6896 28.7657C75.2801 29.0173 74.8607 29.0173 74.42 29.0173H73.6224V31.1799H72.2656V25.7989H74.4677H74.4661ZM73.6207 26.7922V28.0306H74.0631C74.4973 28.0306 75.0729 28.0306 75.0729 27.3991C75.0729 26.7676 74.4809 26.7922 74.0944 26.7922H73.6207Z" fill="#0D265C"/>
<path d="M81.3678 31.1799H77.3994V25.7989H81.3135V26.8004H78.7578V27.8891H81.1967V28.8989H78.7578V30.1932H81.3694V31.1799H81.3678Z" fill="#0D265C"/>
<path d="M84.4621 25.7989C84.9521 25.7989 85.4406 25.7989 85.8747 26.067C86.1592 26.2561 86.577 26.6985 86.577 27.3366C86.577 28.2361 85.883 28.5519 85.6544 28.6621C86.0408 28.8512 86.3089 29.3956 86.4273 29.6719C86.577 29.9794 86.8056 30.4843 86.9486 30.7918L87.1295 31.1783H85.6544C85.536 30.9415 85.0705 29.8758 84.9604 29.6636C84.5969 28.9844 84.3288 28.9844 83.9506 28.9844H83.7533V31.1783H82.3965V25.7973H84.4637L84.4621 25.7989ZM83.7516 26.7758V28.0059H84.3124C84.6594 27.9895 84.7466 27.9895 84.888 27.9105C85.0853 27.8086 85.1807 27.6112 85.1807 27.3892C85.1807 26.7741 84.5805 26.7741 84.4308 26.7741H83.7516V26.7758Z" fill="#0D265C"/>
<path d="M92.2261 26.8087H90.2855V31.1799H88.9205V26.8087H86.9717V25.7989H92.2261V26.8087Z" fill="#0D265C"/>
<path d="M95.9092 28.6621V31.1799H94.5606V28.6621L92.4375 25.7989H94.0557L95.2399 27.4879L96.4239 25.7989H98.034L95.9108 28.6621H95.9092Z" fill="#0D265C"/>
<path d="M105.859 27.3366C105.228 27.0438 104.55 26.8481 103.855 26.8481C103.231 26.8481 102.86 27.006 102.625 27.1557C102.238 27.3925 101.891 27.8579 101.891 28.5371C101.891 29.5551 102.743 30.1307 103.666 30.1307C103.996 30.1307 104.32 30.06 104.628 29.9416V29.31H103.855V28.3085H105.993V30.5254C105.44 30.9908 104.565 31.2506 103.689 31.2506C101.96 31.2506 100.493 30.2244 100.493 28.4894C100.493 26.7544 101.842 25.7282 103.744 25.7282C104.81 25.7282 105.535 26.0357 105.859 26.1706V27.3382V27.3366Z" fill="#0D265C"/>
<path d="M109.227 25.7989C109.715 25.7989 110.205 25.7989 110.639 26.067C110.924 26.2561 111.342 26.6985 111.342 27.3366C111.342 28.2361 110.648 28.5519 110.419 28.6621C110.805 28.8512 111.074 29.3956 111.192 29.6719C111.342 29.9794 111.57 30.4843 111.713 30.7918L111.894 31.1783H110.419C110.301 30.9415 109.835 29.8758 109.725 29.6636C109.362 28.9844 109.093 28.9844 108.715 28.9844H108.518V31.1783H107.161V25.7973H109.228L109.227 25.7989ZM108.516 26.7758V28.0059H109.077C109.424 27.9895 109.511 27.9895 109.653 27.9105C109.85 27.8086 109.945 27.6112 109.945 27.3892C109.945 26.7741 109.345 26.7741 109.195 26.7741H108.516V26.7758Z" fill="#0D265C"/>
<path d="M115.035 31.2506C113.173 31.2506 111.966 29.9021 111.966 28.4976C111.966 27.2428 113.007 25.7282 115.059 25.7282C116.96 25.7282 118.144 27.0932 118.144 28.4976C118.144 29.7442 117.126 31.2506 115.036 31.2506H115.035ZM115.051 26.8711C114.089 26.8711 113.362 27.455 113.362 28.5207C113.362 29.8067 114.42 30.1619 115.058 30.1619C115.918 30.1619 116.753 29.5946 116.753 28.5289C116.753 27.5273 116.099 26.8728 115.049 26.8728L115.051 26.8711Z" fill="#0D265C"/>
<path d="M124.376 28.7246C124.376 29.1505 124.368 29.8215 123.91 30.3823C123.358 31.0451 122.475 31.2506 121.646 31.2506C121.228 31.2506 120.106 31.2342 119.381 30.2968C119.167 30.0123 118.972 29.634 118.972 28.7657V25.7989H120.328V28.4664C120.328 28.6868 120.328 29.0025 120.424 29.3035C120.598 29.9037 121.143 30.1718 121.67 30.1718C122.452 30.1718 122.815 29.6587 122.925 29.3824C123.019 29.1456 123.019 28.94 123.019 28.4664V25.7989H124.376V28.7262V28.7246Z" fill="#0D265C"/>
<path d="M127.737 25.7989C128.084 25.7989 128.501 25.7989 128.912 26.0193C129.37 26.2643 129.733 26.7774 129.733 27.3925C129.733 27.9533 129.44 28.473 128.96 28.7657C128.551 29.0173 128.131 29.0173 127.691 29.0173H126.893V31.1799H125.536V25.7989H127.738H127.737ZM126.893 26.7922V28.0306H127.335C127.769 28.0306 128.345 28.0306 128.345 27.3991C128.345 26.7676 127.753 26.7922 127.367 26.7922H126.893Z" fill="#0D265C"/>
<path d="M50.7185 12.5355L47.5724 16.1256L44.4247 12.5355H42.7588V21.6365H44.6089V15.2474H44.6648L47.4343 18.451H47.6958L50.4652 15.2474H50.5195V21.6365H52.3713V12.5355H50.7185Z" fill="#990A05"/>
<path d="M56.6483 18.0875H59.7418L58.1235 14.4843L56.65 18.0875H56.6483ZM59.0626 12.5371L63.2924 21.6382H61.3387L60.3437 19.4229H56.0843L55.1584 21.6382H53.2178L57.1664 12.5371H59.0593H59.0626Z" fill="#990A05"/>
<path d="M67.1003 16.4183C67.5854 16.4183 67.9653 16.3032 68.2416 16.0729C68.5179 15.8427 68.656 15.5286 68.656 15.1289C68.656 14.7293 68.5195 14.4004 68.2449 14.1932C67.9703 13.9876 67.5805 13.884 67.0723 13.884H65.9195V16.4183H67.0986H67.1003ZM67.5196 12.5371C68.4192 12.5371 69.1543 12.7739 69.7201 13.2476C70.2874 13.7212 70.5703 14.3363 70.5703 15.0977C70.5703 15.6141 70.4289 16.0647 70.1493 16.4495C69.8681 16.8344 69.4504 17.137 68.8978 17.359C69.2037 17.5152 69.4767 17.7274 69.7151 17.9971C69.952 18.2651 70.248 18.7207 70.5983 19.3588C71.1837 20.4623 71.6179 21.2204 71.9008 21.6382H69.8368C69.6954 21.4392 69.503 21.1185 69.2612 20.681C68.7317 19.7124 68.3436 19.0595 68.0952 18.724C67.8485 18.3885 67.6101 18.1484 67.3831 18.0069C67.1545 17.8655 66.8914 17.7948 66.5938 17.7948H65.9211V21.6382H64.0693V12.5371H67.518H67.5196Z" fill="#990A05"/>
<path d="M84.8977 12.5371V20.2616H89.5469V21.6365H83.0459V12.5371H84.8977Z" fill="#990A05"/>
<path d="M96.8568 12.5371V13.9103H92.5152V16.3015H96.671V17.6764H92.5152V20.2616H96.9522V21.6365H90.665V12.5371H96.8568Z" fill="#990A05"/>
<path d="M101.179 12.4187C102.111 12.4187 103.009 12.6391 103.874 13.0831V14.6454C102.883 14.0781 102.003 13.7936 101.235 13.7936C100.769 13.7936 100.404 13.8791 100.141 14.0501C99.8781 14.2211 99.7465 14.4514 99.7465 14.7375C99.7465 15.0813 99.9916 15.3987 100.48 15.6881C100.618 15.7753 101.144 16.0187 102.064 16.4183C102.85 16.7702 103.417 17.16 103.764 17.5909C104.111 18.0201 104.286 18.5381 104.286 19.1417C104.286 19.9229 103.99 20.5544 103.397 21.0346C102.805 21.5148 102.039 21.7549 101.097 21.7549C100.483 21.7549 99.957 21.6908 99.5163 21.5625C99.0739 21.4342 98.5805 21.2138 98.0312 20.9014V19.168C99.0558 19.9755 100.02 20.3801 100.924 20.3801C101.378 20.3801 101.743 20.2863 102.021 20.1005C102.301 19.913 102.439 19.6663 102.439 19.3588C102.439 18.9378 102.197 18.594 101.713 18.3293C101.311 18.1204 100.792 17.8721 100.156 17.5794C99.4012 17.2537 98.8387 16.8738 98.4654 16.4397C98.0921 16.0055 97.9062 15.5006 97.9062 14.9283C97.9062 14.1636 98.2056 13.5551 98.8058 13.1012C99.4044 12.6473 100.195 12.4203 101.177 12.4203" fill="#990A05"/>
<path d="M113.372 12.5371V13.9103H109.971V21.6365H108.119V13.9103H104.72V12.5371H113.372Z" fill="#990A05"/>
<path d="M115.779 17.0893C115.779 17.6928 115.922 18.2355 116.21 18.7174C116.498 19.1993 116.899 19.5726 117.414 19.8373C117.928 20.1021 118.509 20.2353 119.158 20.2353C120.14 20.2353 120.949 19.9426 121.583 19.3555C122.216 18.77 122.533 18.0135 122.533 17.0876C122.533 16.4841 122.39 15.9397 122.104 15.4562C121.819 14.9727 121.416 14.5978 120.897 14.333C120.377 14.0682 119.793 13.9366 119.145 13.9366C118.497 13.9366 117.913 14.0698 117.394 14.3379C116.874 14.6043 116.476 14.9777 116.197 15.4579C115.917 15.9381 115.779 16.4824 115.779 17.0893ZM119.16 12.4187C120.152 12.4187 121.045 12.6128 121.837 13.0025C122.63 13.3906 123.262 13.9514 123.734 14.6833C124.204 15.4151 124.441 16.2177 124.441 17.0909C124.441 17.9642 124.211 18.7322 123.752 19.4591C123.293 20.186 122.661 20.7517 121.859 21.153C121.056 21.5543 120.153 21.7549 119.147 21.7549C118.14 21.7549 117.252 21.551 116.442 21.1415C115.631 20.7336 114.998 20.1728 114.545 19.4575C114.093 18.7437 113.866 17.9543 113.866 17.0893C113.866 16.2242 114.092 15.471 114.545 14.7375C114.998 14.0041 115.623 13.4334 116.419 13.0272C117.213 12.621 118.127 12.4187 119.162 12.4187" fill="#990A05"/>
<path d="M126.983 12.5371L132.675 18.8884V12.5371H134.486V21.6365H132.894L127.169 15.1816V21.6365H125.358V12.5371H126.983Z" fill="#990A05"/>
<path d="M135.751 12.5355V21.6365H142.038V20.2633H137.603V17.6764H141.759V16.3015H137.603V13.9103H141.943V12.5355H135.751Z" fill="#990A05"/>
<path d="M79.1102 14.9184C79.1135 16.3065 76.9344 16.1502 76.2421 16.1519L76.2355 13.6998C76.9295 13.6982 79.1069 13.4712 79.1102 14.9184ZM79.6907 18.7322C79.694 20.2583 77.0824 20.0906 76.2503 20.0939L76.2437 17.3902C77.0759 17.3902 79.6858 17.1419 79.6907 18.7322ZM81.3978 14.3642C81.2547 12.9104 79.9966 12.4253 78.4112 12.2904L78.4063 10.2725L77.1778 10.2758L77.1827 12.2411C76.8604 12.2411 76.5299 12.2493 76.2026 12.2575L76.1977 10.2791L74.9692 10.2824L74.9741 12.3003C74.7077 12.3069 74.4478 12.3118 74.1929 12.3134V12.3069L72.499 12.3102L72.5023 13.6225C72.5023 13.6225 73.4101 13.6028 73.3953 13.6192C73.892 13.6192 74.0548 13.907 74.1041 14.1554L74.1091 16.4545C74.1436 16.4545 74.188 16.4545 74.239 16.4627C74.1979 16.4627 74.1551 16.4627 74.1091 16.4627L74.1173 19.6828C74.0959 19.839 74.0038 20.089 73.6568 20.0906C73.6732 20.1038 72.7638 20.0906 72.7638 20.0906L72.5237 21.5592L74.1222 21.5559C74.4199 21.5559 74.7126 21.5592 75.0004 21.5608L75.0053 23.6018H76.2322L76.2273 21.5806C76.5644 21.5872 76.89 21.5888 77.2091 21.5872L77.214 23.5968L78.4425 23.5935L78.4376 21.5559C80.5031 21.4326 81.9454 20.9096 82.1214 18.969C82.2628 17.4067 81.5261 16.7127 80.3535 16.4331C81.0639 16.0696 81.508 15.4283 81.4011 14.3642" fill="#990A05"/>
</svg>
