<svg width="133" height="29" viewBox="0 0 133 29" fill="none" xmlns="http://www.w3.org/2000/svg">
<path fill-rule="evenodd" clip-rule="evenodd" d="M9.69875 0.811986V9.35658C4.54444 9.35699 0.36618 13.5355 0.36618 18.6899C0.36618 23.8446 4.54486 28.0232 9.69952 28.0232H18.144C18.6349 28.0232 19.0328 27.6253 19.0328 27.1344V18.6899C24.1875 18.6899 28.3661 14.5112 28.3661 9.35659C28.3661 4.20193 24.1867 0.0232544 19.0321 0.0232544H10.4875C10.0519 0.0232544 9.69875 0.376381 9.69875 0.811986ZM19.0328 18.6899H10.5883C10.0974 18.6899 9.6994 18.292 9.6994 17.801L9.69875 9.35658L18.1485 9.35659C18.6249 9.35898 19.0126 9.73609 19.0321 10.2082L19.0328 18.6899Z" fill="#464851"/>
<path d="M41.0252 4.14368L45.7949 18.5692H45.9828L50.7436 4.14368H54.3948L47.9337 22.471H43.8351L37.383 4.14368H41.0252Z" fill="#464851"/>
<path d="M92.3458 11.2312V8.72549H89.6343V5.43231H86.3948V8.72549H84.4439V11.2312H86.3948V18.8735C86.3888 19.7326 86.5738 20.4485 86.9496 21.0212C87.3314 21.594 87.8475 22.0175 88.4978 22.292C89.148 22.5604 89.8789 22.6827 90.6902 22.6589C91.1496 22.6469 91.5374 22.6052 91.8536 22.5336C92.1758 22.462 92.4233 22.3964 92.5963 22.3367L92.0505 19.8042C91.961 19.8281 91.8297 19.8549 91.6567 19.8847C91.4897 19.9146 91.3047 19.9295 91.1019 19.9295C90.8334 19.9295 90.5888 19.8877 90.3681 19.8042C90.1473 19.7207 89.9684 19.5656 89.8311 19.3388C89.6999 19.1062 89.6343 18.7721 89.6343 18.3366V11.2312H92.3458Z" fill="#464851"/>
<path d="M110.388 8.72548V22.4709H113.628V14.3901C113.628 13.8055 113.762 13.2894 114.03 12.842C114.299 12.3945 114.666 12.0455 115.131 11.7949C115.602 11.5384 116.133 11.4101 116.724 11.4101C116.999 11.4101 117.282 11.431 117.574 11.4728C117.873 11.5086 118.09 11.5503 118.227 11.5981V8.61809C118.078 8.58826 117.89 8.56738 117.664 8.55545C117.443 8.53755 117.243 8.5286 117.064 8.5286C116.277 8.5286 115.576 8.74636 114.961 9.18187C114.353 9.61142 113.923 10.2229 113.673 11.0164H113.529V8.72548H110.388Z" fill="#464851"/>
<path fill-rule="evenodd" clip-rule="evenodd" d="M122.328 21.8802C123.33 22.453 124.52 22.7393 125.898 22.7393C126.966 22.7393 127.915 22.5783 128.744 22.2561C129.573 21.928 130.253 21.4686 130.784 20.878C131.321 20.2814 131.685 19.5834 131.876 18.7839L128.851 18.4439C128.708 18.8317 128.496 19.1568 128.216 19.4193C127.936 19.6818 127.604 19.8817 127.223 20.0189C126.841 20.1501 126.414 20.2158 125.943 20.2158C125.239 20.2158 124.625 20.0666 124.1 19.7683C123.575 19.464 123.166 19.0285 122.874 18.4618C122.591 17.9084 122.445 17.2491 122.436 16.4841H132.01V15.4908C132.01 14.2856 131.843 13.2476 131.509 12.3765C131.175 11.4996 130.716 10.7777 130.131 10.2109C129.552 9.64416 128.884 9.22655 128.127 8.95808C127.375 8.68365 126.575 8.54643 125.728 8.54643C124.416 8.54643 123.273 8.84771 122.301 9.45027C121.328 10.0469 120.571 10.8821 120.028 11.9559C119.491 13.0238 119.222 14.2648 119.222 15.6787C119.222 17.1165 119.491 18.3663 120.028 19.4283C120.565 20.4842 121.331 21.3015 122.328 21.8802ZM122.442 14.3006C122.473 13.762 122.611 13.2639 122.856 12.8061C123.136 12.2871 123.527 11.8694 124.028 11.5533C124.529 11.2311 125.111 11.07 125.773 11.07C126.393 11.07 126.936 11.2102 127.402 11.4906C127.873 11.771 128.24 12.1558 128.502 12.645C128.765 13.1283 128.899 13.6801 128.905 14.3006H122.442Z" fill="#464851"/>
<path d="M103.816 16.69V8.72551H107.056V22.471H103.915V20.0279H103.772C103.461 20.7975 102.951 21.4269 102.241 21.9161C101.537 22.4053 100.669 22.6499 99.6373 22.6499C98.7365 22.6499 97.94 22.4501 97.248 22.0504C96.5619 21.6447 96.025 21.057 95.6372 20.2874C95.2494 19.5119 95.0555 18.5752 95.0555 17.4775V8.72551H98.295V16.9764C98.295 17.8474 98.5337 18.5394 99.0109 19.0525C99.4882 19.5656 100.115 19.8221 100.89 19.8221C101.367 19.8221 101.83 19.7058 102.277 19.4731C102.725 19.2404 103.092 18.8944 103.378 18.435C103.67 17.9697 103.816 17.388 103.816 16.69Z" fill="#464851"/>
<path d="M73.3664 14.4169V22.4709H70.1269V8.72541H73.2232V11.0611H73.3843C73.7005 10.2915 74.2046 9.67995 74.8966 9.22655C75.5946 8.77314 76.4567 8.54643 77.4829 8.54643C78.4314 8.54643 79.2577 8.74927 79.9617 9.15495C80.6716 9.56064 81.2205 10.1483 81.6083 10.9179C82.002 11.6875 82.1959 12.6211 82.19 13.7189V22.4709H78.9505V14.22C78.9505 13.3013 78.7118 12.5824 78.2346 12.0633C77.7633 11.5443 77.11 11.2848 76.2748 11.2848C75.708 11.2848 75.2039 11.4101 74.7624 11.6606C74.3269 11.9052 73.9838 12.2602 73.7333 12.7256C73.4887 13.1909 73.3664 13.7547 73.3664 14.4169Z" fill="#464851"/>
<path fill-rule="evenodd" clip-rule="evenodd" d="M57.705 21.8802C58.7073 22.453 59.8975 22.7393 61.2756 22.7393C62.3435 22.7393 63.2921 22.5783 64.1214 22.2561C64.9506 21.928 65.6307 21.4686 66.1617 20.878C66.6986 20.2814 67.0626 19.5834 67.2535 18.7839L64.2288 18.4439C64.0856 18.8317 63.8738 19.1568 63.5934 19.4193C63.313 19.6818 62.9819 19.8817 62.6001 20.0189C62.2182 20.1501 61.7917 20.2158 61.3204 20.2158C60.6164 20.2158 60.0019 20.0666 59.4769 19.7683C58.9519 19.464 58.5432 19.0285 58.2509 18.4618C57.9684 17.9084 57.8225 17.2491 57.8129 16.4841H67.3877V15.4908C67.3877 14.2856 67.2207 13.2476 66.8866 12.3765C66.5525 11.4996 66.0931 10.7777 65.5084 10.2109C64.9297 9.64416 64.2616 9.22655 63.5039 8.95808C62.7522 8.68365 61.9528 8.54643 61.1056 8.54643C59.7931 8.54643 58.6506 8.84771 57.6782 9.45027C56.7057 10.0469 55.9481 10.8821 55.4052 11.9559C54.8682 13.0238 54.5998 14.2648 54.5998 15.6787C54.5998 17.1165 54.8682 18.3663 55.4052 19.4283C55.9421 20.4842 56.7087 21.3015 57.705 21.8802ZM64.2824 14.3006H57.819C57.8502 13.762 57.9882 13.2639 58.233 12.8061C58.5134 12.2871 58.9042 11.8694 59.4053 11.5533C59.9065 11.2311 60.4881 11.07 61.1503 11.07C61.7708 11.07 62.3137 11.2102 62.779 11.4906C63.2503 11.771 63.6173 12.1558 63.8797 12.645C64.1422 13.1283 64.2765 13.6801 64.2824 14.3006Z" fill="#464851"/>
</svg>
