<svg width="40" height="33" viewBox="0 0 40 33" fill="none" xmlns="http://www.w3.org/2000/svg">
<path d="M0 24.2562V32.9231H6.09313V22.0492L0 24.2562Z" fill="#990a05"/>
<path d="M0 8.41243L6.09313 6.1495V5.11014L0 7.47502V8.41243Z" fill="#990a05"/>
<path d="M0 6.31891L6.09313 4.05598V3.01662L0 5.38151V6.31891Z" fill="#990a05"/>
<path d="M6.09313 0.92308L0 3.28962V4.22538L6.09313 1.96245V0.92308Z" fill="#990a05"/>
<path d="M0 23.0639L6.09313 20.801V19.7616L0 22.1265V23.0639Z" fill="#990a05"/>
<path d="M0 20.9704L6.09313 18.7074V17.6681L0 20.0346V20.9704Z" fill="#990a05"/>
<path d="M0 18.8768L6.09313 16.6139V15.5745L0 17.9411V18.8768Z" fill="#990a05"/>
<path d="M0 16.7833L6.09313 14.522V13.4827L0 15.8475V16.7833Z" fill="#990a05"/>
<path d="M0 10.5043L6.09313 8.24142V7.20206L0 9.56859V10.5043Z" fill="#990a05"/>
<path d="M0 12.5979L6.09313 10.3349V9.29558L0 11.6621V12.5979Z" fill="#990a05"/>
<path d="M0 14.6914L6.09313 12.4285V11.3891L0 13.754V14.6914Z" fill="#990a05"/>
<path d="M6.09309 0.92308V1.96245V3.08075V4.12012V5.13318V6.17254V7.19875V8.23812V9.30216V10.3432V11.4664V12.5058V13.4744V14.5138V15.7341V16.7734V17.7092V18.7485V19.7616V20.801V21.814V32.9214H12.1106V6.23175L6.09309 0.92308Z" fill="#990a05"/>
<path d="M36.9204 24.2562V32.9231H30.8273V22.0492L36.9204 24.2562Z" fill="#990a05"/>
<path d="M36.9204 8.41243L30.8273 6.1495V5.11014L36.9204 7.47502V8.41243Z" fill="#990a05"/>
<path d="M36.9204 6.31891L30.8273 4.05598V3.01662L36.9204 5.38151V6.31891Z" fill="#990a05"/>
<path d="M30.8273 0.92308L36.9204 3.28962V4.22538L30.8273 1.96245V0.92308Z" fill="#990a05"/>
<path d="M36.9204 23.0639L30.8273 20.801V19.7616L36.9204 22.1265V23.0639Z" fill="#990a05"/>
<path d="M36.9204 20.9704L30.8273 18.7074V17.6681L36.9204 20.0346V20.9704Z" fill="#990a05"/>
<path d="M36.9204 18.8768L30.8273 16.6139V15.5745L36.9204 17.9411V18.8768Z" fill="#990a05"/>
<path d="M36.9204 16.7833L30.8273 14.522V13.4827L36.9204 15.8475V16.7833Z" fill="#990a05"/>
<path d="M36.9204 10.5043L30.8273 8.24142V7.20206L36.9204 9.56859V10.5043Z" fill="#990a05"/>
<path d="M36.9204 12.5979L30.8273 10.3349V9.29558L36.9204 11.6621V12.5979Z" fill="#990a05"/>
<path d="M36.9204 14.6914L30.8273 12.4285V11.3891L36.9204 13.754V14.6914Z" fill="#990a05"/>
<path d="M30.8274 0.92308V1.96245V3.08075V4.12012V5.13318V6.17254V7.19875V8.23812V9.30216V10.3432V11.4664V12.5058V13.4744V14.5138V15.7341V16.7734V17.7092V18.7485V19.7616V20.801V21.814V32.9214H24.8099V6.23175L30.8274 0.92308Z" fill="#990a05"/>
<path d="M18.4602 16.4281L14.4047 14.7588V32.9214H18.4602H22.5141V14.7588L18.4602 16.4281Z" fill="#990a05"/>
<path d="M57.4712 25.7988C57.8182 25.7988 58.236 25.7988 58.6471 26.0192C59.1043 26.2643 59.4677 26.7774 59.4677 27.3924C59.4677 27.9532 59.175 28.4729 58.6948 28.7656C58.2853 29.0173 57.8659 29.0173 57.4252 29.0173H56.6276V31.1799H55.2708V25.7988H57.4729H57.4712ZM56.6276 26.7922V28.0305H57.07C57.5041 28.0305 58.0797 28.0305 58.0797 27.399C58.0797 26.7675 57.4877 26.7922 57.1012 26.7922H56.6276Z" fill="#990a05"/>
</svg>
